<svg id="Layer_1" data-name="Layer 1" xmlns="http://www.w3.org/2000/svg" viewBox="0 0 100 100"><title>card icons</title><g id="Symbol_DeviceActivity" data-name="Symbol/DeviceActivity"><g id="Page-1"><path id="Stroke-5" d="M40.74,80.11H98.6" fill="#fff" stroke="#076aaa" stroke-width="3"/><path id="Stroke-12" d="M4.62,24.81l32.86-.2a2.86,2.86,0,0,1,2.87,2.86l.39,66.08a2.86,2.86,0,0,1-2.84,2.89L5,96.64a2.86,2.86,0,0,1-2.87-2.85L1.78,27.7A2.86,2.86,0,0,1,4.62,24.81Z" fill="#fff" stroke="#076aaa" stroke-width="3"/><path id="Stroke-14" d="M1.78,80.11h39" fill="#fff" stroke="#076aaa" stroke-width="3"/></g><path id="Fill-18" d="M65,90.73a3,3,0,1,1,2.93-3,3,3,0,0,1-2.93,3" fill="#076aaa"/><path id="Fill-18-Copy" d="M21.29,90.73a3,3,0,1,1,2.93-3,3,3,0,0,1-2.93,3" fill="#076aaa"/><g id="Page-1-2" data-name="Page-1"><path id="Fill-1" d="M99.26,6.69a4.47,4.47,0,0,0-1.37-3.2,4.61,4.61,0,0,0-3.24-1.31h0l-61.1.36A4.58,4.58,0,0,0,28.94,7.1L29,19.87c1.54,0,1.54,0,3.32,0L32.26,7.08A1.28,1.28,0,0,1,33.54,5.8l61.1-.36h0a1.29,1.29,0,0,1,.91.37,1.25,1.25,0,0,1,.38.9L96.46,93a1.28,1.28,0,0,1-1.28,1.28l-47.34.28a15,15,0,0,1-.92,3.27l48.27-.28A4.58,4.58,0,0,0,99.78,93Z" fill="#076aaa"/></g></g></svg>