<svg id="Layer_1" data-name="Layer 1" xmlns="http://www.w3.org/2000/svg" viewBox="0 0 100 100"><title>card icons</title><g id="Symbol_SecurityCredentials" data-name="Symbol/SecurityCredentials"><g id="Page-1"><path id="Fill-1" d="M52.41,60.65H47.54l.82-6.3A2.93,2.93,0,0,1,47,51.83a3,3,0,1,1,4.66,2.52Zm-8.67-22.8a6.21,6.21,0,0,1,12.43,0v5H43.7v-5Zm16.84,5v-5a10.63,10.63,0,0,0-21.26,0v5H35.4l0,25.38h29.1l0-25.38H60.58Z" fill="#076aaa"/><g id="Group-5"><path id="Fill-3" d="M11.5,16.86c-4,56.44,32.62,77,38.28,79.82,42.1-23.2,39.35-72.49,38.69-79.81L49.83,3.21Zm36.8,82.47C41.78,96,3.93,74.21,8.54,15.64l.08-1L49.83,0,91.28,14.65l.12.92a99,99,0,0,1-2.24,32.26C85.36,64.05,74.75,86.52,49.71,100Z" fill="#076aaa"/></g></g></g></svg>