<svg id="Layer_1" data-name="Layer 1" xmlns="http://www.w3.org/2000/svg" viewBox="0 0 100 100"><title>card icons</title><g id="Symbol_AppsAccount-Access" data-name="Symbol/AppsAccount-Access"><g id="Page-1"><path id="Stroke-1" d="M36,30.8H17.61a2.31,2.31,0,0,1-2.31-2.3V10.14a2.31,2.31,0,0,1,2.31-2.3H36a2.31,2.31,0,0,1,2.31,2.3V28.5A2.31,2.31,0,0,1,36,30.8Z" fill="#fff" stroke="#076aaa" stroke-width="3"/><path id="Stroke-3" d="M65.82,30.8H47.39a2.32,2.32,0,0,1-2.32-2.31V10.15a2.32,2.32,0,0,1,2.32-2.31H65.82a2.32,2.32,0,0,1,2.32,2.31V28.49A2.32,2.32,0,0,1,65.82,30.8Z" fill="#fff" stroke="#076aaa" stroke-width="2.8"/><path id="Stroke-3-Copy" d="M65.82,60.58H47.39a2.32,2.32,0,0,1-2.32-2.31V39.93a2.32,2.32,0,0,1,2.32-2.31H65.82a2.32,2.32,0,0,1,2.32,2.31V58.27A2.32,2.32,0,0,1,65.82,60.58Z" fill="#fff" stroke="#076aaa" stroke-width="2.8"/><path id="Stroke-5" d="M95.57,30.8H77.19a2.34,2.34,0,0,1-2.34-2.33V10.17a2.34,2.34,0,0,1,2.34-2.33H95.57a2.34,2.34,0,0,1,2.34,2.33v18.3A2.34,2.34,0,0,1,95.57,30.8Z" fill="#fff" stroke="#076aaa" stroke-width="2.8"/><path id="Stroke-5-Copy" d="M95.57,60.58H77.19a2.34,2.34,0,0,1-2.34-2.33V39.95a2.34,2.34,0,0,1,2.34-2.33H95.57a2.34,2.34,0,0,1,2.34,2.33v18.3A2.34,2.34,0,0,1,95.57,60.58Z" fill="#fff" stroke="#076aaa" stroke-width="2.8"/><path id="Stroke-11" d="M65.38,90.37H46.76a2.22,2.22,0,0,1-2.22-2.21V69.62a2.22,2.22,0,0,1,2.22-2.21H65.38a2.22,2.22,0,0,1,2.22,2.21V88.16A2.22,2.22,0,0,1,65.38,90.37Z" fill="#fff" stroke="#076aaa" stroke-width="2.8"/><path id="Stroke-13" d="M95.73,90.37H77.2a2.27,2.27,0,0,1-2.27-2.26V69.67a2.27,2.27,0,0,1,2.27-2.26H95.73A2.27,2.27,0,0,1,98,69.67V88.11A2.27,2.27,0,0,1,95.73,90.37Z" fill="#fff" stroke="#076aaa" stroke-width="2.8"/><path id="Fill-15" d="M22.64,82.46H16.46l1-8a3.73,3.73,0,0,1-1.77-3.21,3.84,3.84,0,1,1,5.92,3.21Zm-11-29a7.9,7.9,0,0,1,15.79,0v6.41H11.57V53.45ZM33,59.81V53.45a13.51,13.51,0,0,0-27,0v6.41H1l0,32.3H38l0-32.3H33Z" fill="#076aaa"/></g></g></svg>