<svg id="Layer_1" data-name="Layer 1" xmlns="http://www.w3.org/2000/svg" viewBox="0 0 100 100"><title>card icons</title><g id="Symbol_CardsMobileWallet" data-name="Symbol/CardsMobileWallet"><g id="Page-1"><polygon id="Fill-1" points="10.59 90.59 85.41 90.59 85.41 53.8 10.59 53.8 10.59 90.59" fill="#fff"/><g id="Group-22"><path id="Fill-2" d="M65.94,55.43,40.24,71A3.84,3.84,0,0,1,35,69.73L6.9,23.47A3.84,3.84,0,0,1,8.19,18.2L33.89,2.61A3.84,3.84,0,0,1,39.16,3.9L67.23,50.15a3.84,3.84,0,0,1-1.29,5.28" fill="#fff"/><path id="Stroke-4" d="M65.94,55.43,40.24,71A3.84,3.84,0,0,1,35,69.73L6.9,23.47A3.84,3.84,0,0,1,8.19,18.2L33.89,2.61A3.84,3.84,0,0,1,39.16,3.9L67.23,50.15A3.84,3.84,0,0,1,65.94,55.43Z" fill="#fff" stroke="#076aaa" stroke-width="3"/><path id="Stroke-6" d="M26.81,6.9,58.7,58.59" fill="#010101" stroke="#076aaa" stroke-width="3"/><path id="Fill-8" d="M88.13,68.21,58.58,73.66a3.84,3.84,0,0,1-4.47-3.08l-9.83-53.2a3.84,3.84,0,0,1,3.08-4.47L76.91,7.45a3.84,3.84,0,0,1,4.47,3.08l9.83,53.2a3.84,3.84,0,0,1-3.08,4.47" fill="#fff"/><g id="Group"><path id="Stroke-10" d="M88.13,68.21,58.58,73.66a3.84,3.84,0,0,1-4.47-3.08l-9.83-53.2a3.84,3.84,0,0,1,3.08-4.47L76.91,7.45a3.84,3.84,0,0,1,4.47,3.08l9.83,53.2A3.84,3.84,0,0,1,88.13,68.21Z" fill="#fff" stroke="#076aaa" stroke-width="3"/><path id="Stroke-12" d="M68.77,9,80.25,68.6" fill="#010101" stroke="#076aaa" stroke-width="3"/></g><path id="Fill-14" d="M97.39,48.55,98,93.29a3.4,3.4,0,0,1-3.35,3.45L6.06,98A3.4,3.4,0,0,1,2.61,94.6L2,49.86a3.4,3.4,0,0,1,3.35-3.45L93.94,45.2a3.4,3.4,0,0,1,3.45,3.35" fill="#fff"/><path id="Stroke-16" d="M97.39,48.55,98,93.29a3.4,3.4,0,0,1-3.35,3.45L6.06,98A3.4,3.4,0,0,1,2.61,94.6L2,49.86a3.4,3.4,0,0,1,3.35-3.45L93.94,45.2A3.4,3.4,0,0,1,97.39,48.55Z" fill="#fff" stroke="#076aaa" stroke-width="3"/><path id="Stroke-18" d="M23.83,45.79l.4,51.54" fill="#010101" stroke="#076aaa" stroke-width="3"/></g><path id="Fill-18" d="M13.68,75.87a3.07,3.07,0,1,1,3-3.09,3.07,3.07,0,0,1-3,3.09" fill="#076aaa"/></g></g></svg>