<?xml version="1.0" encoding="utf-8"?>
<!-- Generator: Adobe Illustrator 21.0.2, SVG Export Plug-In . SVG Version: 6.00 Build 0)  -->
<svg version="1.1" id="Layer_1" xmlns="http://www.w3.org/2000/svg" xmlns:xlink="http://www.w3.org/1999/xlink" x="0px" y="0px"
	 viewBox="0 0 100 100" style="enable-background:new 0 0 100 100;" xml:space="preserve">
<style type="text/css">
	.st0{fill:#FFFFFF;}
</style>
<g>
	<polygon id="Fill-9" class="st0" points="92.9,67.2 93.3,100 61,85.9 	"/>
	<path class="st0" d="M82.1,0H17.4C11.5,0,6.7,4.8,6.7,10.7v66.6c0,5.9,4.8,10.7,10.7,10.7h48.3h16.3c5.9,0,10.7-4.8,10.7-10.7V10.7
		C92.8,4.8,88,0,82.1,0z M80.9,60.3c-3.9,7.8-16.5,13-31.3,13s-27.5-5.2-31.3-13c-0.7-1.3-0.1-2.9,1.2-3.5c1.3-0.6,2.9-0.1,3.5,1.2
		c2.5,5,12.5,10.1,26.6,10.1c14.2,0,24.1-5.1,26.6-10.1c0.7-1.3,2.2-1.8,3.5-1.2C81,57.4,81.5,59,80.9,60.3z"/>
</g>
</svg>
